<svg id="visual" viewBox="0 0 960 540" width="960" height="540" xmlns="http://www.w3.org/2000/svg" xmlns:xlink="http://www.w3.org/1999/xlink" version="1.1"><g stroke-width="1" stroke-linejoin="bevel"><path d="M459 245.4L531 300.6L527 256.4Z" fill="#ececec" stroke="#ececec"></path><path d="M459 245.4L488 329.6L531 300.6Z" fill="#ececec" stroke="#ececec"></path><path d="M348 277.6L445 410.7L488 329.6Z" fill="#ebebeb" stroke="#ebebeb"></path><path d="M488 329.6L530 413.7L531 300.6Z" fill="#e9e9e9" stroke="#e9e9e9"></path><path d="M445 410.7L530 413.7L488 329.6Z" fill="#f0f0f0" stroke="#f0f0f0"></path><path d="M661 228.4L540 153.3L527 256.4Z" fill="#f2f2f2" stroke="#f2f2f2"></path><path d="M527 256.4L540 153.3L459 245.4Z" fill="#f7f7f7" stroke="#f7f7f7"></path><path d="M661 228.4L527 256.4L531 300.6Z" fill="#f0f0f0" stroke="#f0f0f0"></path><path d="M347 268.4L348 277.6L459 245.4Z" fill="#e8e8e8" stroke="#e8e8e8"></path><path d="M459 245.4L348 277.6L488 329.6Z" fill="#e8e8e8" stroke="#e8e8e8"></path><path d="M375 181.4L347 268.4L459 245.4Z" fill="#f2f2f2" stroke="#f2f2f2"></path><path d="M540 153.3L447 142.3L459 245.4Z" fill="#f2f2f2" stroke="#f2f2f2"></path><path d="M530 413.7L587 394.7L531 300.6Z" fill="#ececec" stroke="#ececec"></path><path d="M447 142.3L375 181.4L459 245.4Z" fill="#f3f3f3" stroke="#f3f3f3"></path><path d="M376 443.7L422 431.9L445 410.7Z" fill="#eeeeee" stroke="#eeeeee"></path><path d="M445 410.7L517 520.9L530 413.7Z" fill="#ebebeb" stroke="#ebebeb"></path><path d="M540 153.3L523 110.3L447 142.3Z" fill="#ebebeb" stroke="#ebebeb"></path><path d="M680 266.4L661 228.4L531 300.6Z" fill="#f2f2f2" stroke="#f2f2f2"></path><path d="M540 153.3L534 89.1L523 110.3Z" fill="#ececec" stroke="#ececec"></path><path d="M670 369.6L680 266.4L531 300.6Z" fill="#eeeeee" stroke="#eeeeee"></path><path d="M347 268.4L294 259.6L348 277.6Z" fill="#e6e6e6" stroke="#e6e6e6"></path><path d="M348 277.6L376 443.7L445 410.7Z" fill="#f5f5f5" stroke="#f5f5f5"></path><path d="M294 198.4L294 259.6L347 268.4Z" fill="#f5f5f5" stroke="#f5f5f5"></path><path d="M257 350.7L376 443.7L348 277.6Z" fill="#f0f0f0" stroke="#f0f0f0"></path><path d="M517 520.9L579 477.9L530 413.7Z" fill="#f3f3f3" stroke="#f3f3f3"></path><path d="M617 107.3L534 89.1L540 153.3Z" fill="#f3f3f3" stroke="#f3f3f3"></path><path d="M523 110.3L460 78.1L447 142.3Z" fill="#e6e6e6" stroke="#e6e6e6"></path><path d="M447 142.3L460 78.1L375 181.4Z" fill="#e9e9e9" stroke="#e9e9e9"></path><path d="M683 505.9L670 369.6L587 394.7Z" fill="#f5f5f5" stroke="#f5f5f5"></path><path d="M587 394.7L670 369.6L531 300.6Z" fill="#f2f2f2" stroke="#f2f2f2"></path><path d="M534 89.1L460 78.1L523 110.3Z" fill="#f0f0f0" stroke="#f0f0f0"></path><path d="M375 181.4L294 198.4L347 268.4Z" fill="#f5f5f5" stroke="#f5f5f5"></path><path d="M291 138.3L294 198.4L375 181.4Z" fill="#e6e6e6" stroke="#e6e6e6"></path><path d="M517 520.9L445 410.7L422 431.9Z" fill="#e8e8e8" stroke="#e8e8e8"></path><path d="M530 413.7L579 477.9L587 394.7Z" fill="#f7f7f7" stroke="#f7f7f7"></path><path d="M661 228.4L617 107.3L540 153.3Z" fill="#e9e9e9" stroke="#e9e9e9"></path><path d="M659 92.3L617 107.3L661 228.4Z" fill="#e6e6e6" stroke="#e6e6e6"></path><path d="M294 198.4L253 244.6L294 259.6Z" fill="#f7f7f7" stroke="#f7f7f7"></path><path d="M294 259.6L257 350.7L348 277.6Z" fill="#f0f0f0" stroke="#f0f0f0"></path><path d="M465 540L517 520.9L422 431.9Z" fill="#f5f5f5" stroke="#f5f5f5"></path><path d="M253 244.6L257 350.7L294 259.6Z" fill="#ebebeb" stroke="#ebebeb"></path><path d="M309 24.1L291 138.3L375 181.4Z" fill="#f3f3f3" stroke="#f3f3f3"></path><path d="M294 198.4L173 205.3L253 244.6Z" fill="#f7f7f7" stroke="#f7f7f7"></path><path d="M744 307.6L738 271.4L680 266.4Z" fill="#e8e8e8" stroke="#e8e8e8"></path><path d="M680 266.4L738 271.4L661 228.4Z" fill="#f2f2f2" stroke="#f2f2f2"></path><path d="M836 196.3L659 92.3L661 228.4Z" fill="#f5f5f5" stroke="#f5f5f5"></path><path d="M617 107.3L564 16.1L534 89.1Z" fill="#e9e9e9" stroke="#e9e9e9"></path><path d="M534 89.1L490 0L460 78.1Z" fill="#ebebeb" stroke="#ebebeb"></path><path d="M745 443.9L730 367.7L670 369.6Z" fill="#e8e8e8" stroke="#e8e8e8"></path><path d="M670 369.6L744 307.6L680 266.4Z" fill="#e8e8e8" stroke="#e8e8e8"></path><path d="M730 367.7L744 307.6L670 369.6Z" fill="#f3f3f3" stroke="#f3f3f3"></path><path d="M433 540L422 431.9L376 443.7Z" fill="#e6e6e6" stroke="#e6e6e6"></path><path d="M433 540L465 540L422 431.9Z" fill="#f0f0f0" stroke="#f0f0f0"></path><path d="M279 540L433 540L376 443.7Z" fill="#f7f7f7" stroke="#f7f7f7"></path><path d="M257 350.7L266 434.7L376 443.7Z" fill="#e9e9e9" stroke="#e9e9e9"></path><path d="M517 520.9L581 540L579 477.9Z" fill="#f7f7f7" stroke="#f7f7f7"></path><path d="M579 477.9L683 505.9L587 394.7Z" fill="#f5f5f5" stroke="#f5f5f5"></path><path d="M465 540L581 540L517 520.9Z" fill="#ebebeb" stroke="#ebebeb"></path><path d="M309 24.1L275 109.3L291 138.3Z" fill="#ececec" stroke="#ececec"></path><path d="M291 138.3L173 205.3L294 198.4Z" fill="#f0f0f0" stroke="#f0f0f0"></path><path d="M624 16.1L564 16.1L617 107.3Z" fill="#f2f2f2" stroke="#f2f2f2"></path><path d="M460 78.1L309 24.1L375 181.4Z" fill="#f5f5f5" stroke="#f5f5f5"></path><path d="M581 540L597 540L579 477.9Z" fill="#e6e6e6" stroke="#e6e6e6"></path><path d="M730 367.7L764 339.7L744 307.6Z" fill="#e9e9e9" stroke="#e9e9e9"></path><path d="M744 307.6L832 305.6L738 271.4Z" fill="#e8e8e8" stroke="#e8e8e8"></path><path d="M809 399.9L764 339.7L730 367.7Z" fill="#f2f2f2" stroke="#f2f2f2"></path><path d="M548 0L490 0L534 89.1Z" fill="#ececec" stroke="#ececec"></path><path d="M253 244.6L214 364.6L257 350.7Z" fill="#f2f2f2" stroke="#f2f2f2"></path><path d="M257 350.7L221 420.9L266 434.7Z" fill="#eeeeee" stroke="#eeeeee"></path><path d="M125 310.6L214 364.6L253 244.6Z" fill="#e6e6e6" stroke="#e6e6e6"></path><path d="M633 0L548 0L564 16.1Z" fill="#e8e8e8" stroke="#e8e8e8"></path><path d="M564 16.1L548 0L534 89.1Z" fill="#f3f3f3" stroke="#f3f3f3"></path><path d="M221 420.9L271 475.9L266 434.7Z" fill="#e6e6e6" stroke="#e6e6e6"></path><path d="M266 434.7L271 475.9L376 443.7Z" fill="#ebebeb" stroke="#ebebeb"></path><path d="M597 540L683 505.9L579 477.9Z" fill="#eeeeee" stroke="#eeeeee"></path><path d="M659 92.3L624 16.1L617 107.3Z" fill="#e6e6e6" stroke="#e6e6e6"></path><path d="M490 0L386 0L460 78.1Z" fill="#e9e9e9" stroke="#e9e9e9"></path><path d="M214 364.6L221 420.9L257 350.7Z" fill="#f2f2f2" stroke="#f2f2f2"></path><path d="M683 505.9L745 443.9L670 369.6Z" fill="#e9e9e9" stroke="#e9e9e9"></path><path d="M119 406.7L203 402.9L214 364.6Z" fill="#f5f5f5" stroke="#f5f5f5"></path><path d="M214 364.6L203 402.9L221 420.9Z" fill="#ebebeb" stroke="#ebebeb"></path><path d="M274 540L279 540L271 475.9Z" fill="#f0f0f0" stroke="#f0f0f0"></path><path d="M386 0L309 24.1L460 78.1Z" fill="#f3f3f3" stroke="#f3f3f3"></path><path d="M719 50.1L633 0L624 16.1Z" fill="#e8e8e8" stroke="#e8e8e8"></path><path d="M624 16.1L633 0L564 16.1Z" fill="#e9e9e9" stroke="#e9e9e9"></path><path d="M719 50.1L624 16.1L659 92.3Z" fill="#e8e8e8" stroke="#e8e8e8"></path><path d="M386 0L339 0L309 24.1Z" fill="#f3f3f3" stroke="#f3f3f3"></path><path d="M140 178.4L173 205.3L275 109.3Z" fill="#e6e6e6" stroke="#e6e6e6"></path><path d="M275 109.3L173 205.3L291 138.3Z" fill="#eeeeee" stroke="#eeeeee"></path><path d="M836 196.3L661 228.4L738 271.4Z" fill="#e6e6e6" stroke="#e6e6e6"></path><path d="M836 196.3L719 50.1L659 92.3Z" fill="#f2f2f2" stroke="#f2f2f2"></path><path d="M274 540L271 475.9L130 540Z" fill="#eeeeee" stroke="#eeeeee"></path><path d="M271 475.9L279 540L376 443.7Z" fill="#e9e9e9" stroke="#e9e9e9"></path><path d="M130 540L271 475.9L221 420.9Z" fill="#f3f3f3" stroke="#f3f3f3"></path><path d="M597 540L706 540L683 505.9Z" fill="#ececec" stroke="#ececec"></path><path d="M683 505.9L706 540L745 443.9Z" fill="#f7f7f7" stroke="#f7f7f7"></path><path d="M831 443.7L809 399.9L745 443.9Z" fill="#ebebeb" stroke="#ebebeb"></path><path d="M745 443.9L809 399.9L730 367.7Z" fill="#f3f3f3" stroke="#f3f3f3"></path><path d="M764 339.7L832 305.6L744 307.6Z" fill="#f5f5f5" stroke="#f5f5f5"></path><path d="M339 0L291 0L309 24.1Z" fill="#ebebeb" stroke="#ebebeb"></path><path d="M309 24.1L198 13.1L275 109.3Z" fill="#f0f0f0" stroke="#f0f0f0"></path><path d="M809 399.9L832 305.6L764 339.7Z" fill="#e6e6e6" stroke="#e6e6e6"></path><path d="M140 178.4L142 237.4L173 205.3Z" fill="#e9e9e9" stroke="#e9e9e9"></path><path d="M173 205.3L142 237.4L253 244.6Z" fill="#f3f3f3" stroke="#f3f3f3"></path><path d="M832 305.6L842 258.6L738 271.4Z" fill="#eeeeee" stroke="#eeeeee"></path><path d="M842 258.6L836 196.3L738 271.4Z" fill="#f7f7f7" stroke="#f7f7f7"></path><path d="M173 37.1L140 178.4L275 109.3Z" fill="#f7f7f7" stroke="#f7f7f7"></path><path d="M142 237.4L125 310.6L253 244.6Z" fill="#e9e9e9" stroke="#e9e9e9"></path><path d="M203 402.9L119 406.7L221 420.9Z" fill="#ececec" stroke="#ececec"></path><path d="M43 391.7L125 310.6L0 293.6Z" fill="#f3f3f3" stroke="#f3f3f3"></path><path d="M842 258.6L844 197.4L836 196.3Z" fill="#f2f2f2" stroke="#f2f2f2"></path><path d="M836 196.3L763 29.1L719 50.1Z" fill="#e8e8e8" stroke="#e8e8e8"></path><path d="M821 0L763 29.1L868 30.1Z" fill="#f0f0f0" stroke="#f0f0f0"></path><path d="M719 50.1L760 0L633 0Z" fill="#ebebeb" stroke="#ebebeb"></path><path d="M815 540L831 443.7L745 443.9Z" fill="#f0f0f0" stroke="#f0f0f0"></path><path d="M960 384.7L960 334.6L832 305.6Z" fill="#eeeeee" stroke="#eeeeee"></path><path d="M832 305.6L960 275.4L842 258.6Z" fill="#f3f3f3" stroke="#f3f3f3"></path><path d="M125 310.6L119 406.7L214 364.6Z" fill="#f0f0f0" stroke="#f0f0f0"></path><path d="M821 0L760 0L763 29.1Z" fill="#ebebeb" stroke="#ebebeb"></path><path d="M763 29.1L760 0L719 50.1Z" fill="#eeeeee" stroke="#eeeeee"></path><path d="M291 0L198 13.1L309 24.1Z" fill="#e6e6e6" stroke="#e6e6e6"></path><path d="M198 13.1L173 37.1L275 109.3Z" fill="#ebebeb" stroke="#ebebeb"></path><path d="M706 540L815 540L745 443.9Z" fill="#f7f7f7" stroke="#f7f7f7"></path><path d="M291 0L175 0L198 13.1Z" fill="#ececec" stroke="#ececec"></path><path d="M198 13.1L175 0L173 37.1Z" fill="#f0f0f0" stroke="#f0f0f0"></path><path d="M173 37.1L32 102.3L140 178.4Z" fill="#e8e8e8" stroke="#e8e8e8"></path><path d="M897 127.3L763 29.1L836 196.3Z" fill="#f3f3f3" stroke="#f3f3f3"></path><path d="M960 164.3L897 127.3L844 197.4Z" fill="#f7f7f7" stroke="#f7f7f7"></path><path d="M844 197.4L897 127.3L836 196.3Z" fill="#e8e8e8" stroke="#e8e8e8"></path><path d="M960 275.4L844 197.4L842 258.6Z" fill="#f0f0f0" stroke="#f0f0f0"></path><path d="M960 275.4L832 305.6L960 334.6Z" fill="#e6e6e6" stroke="#e6e6e6"></path><path d="M91 478.9L130 540L221 420.9Z" fill="#f7f7f7" stroke="#f7f7f7"></path><path d="M43 391.7L91 478.9L119 406.7Z" fill="#f7f7f7" stroke="#f7f7f7"></path><path d="M119 406.7L91 478.9L221 420.9Z" fill="#e6e6e6" stroke="#e6e6e6"></path><path d="M43 391.7L119 406.7L125 310.6Z" fill="#f5f5f5" stroke="#f5f5f5"></path><path d="M897 127.3L868 30.1L763 29.1Z" fill="#e6e6e6" stroke="#e6e6e6"></path><path d="M0 286.4L125 310.6L142 237.4Z" fill="#eeeeee" stroke="#eeeeee"></path><path d="M0 286.4L142 237.4L0 178.3Z" fill="#f3f3f3" stroke="#f3f3f3"></path><path d="M175 0L114 0L173 37.1Z" fill="#e8e8e8" stroke="#e8e8e8"></path><path d="M832 305.6L809 399.9L960 384.7Z" fill="#f0f0f0" stroke="#f0f0f0"></path><path d="M897 127.3L960 100.1L868 30.1Z" fill="#ececec" stroke="#ececec"></path><path d="M960 384.7L809 399.9L831 443.7Z" fill="#eeeeee" stroke="#eeeeee"></path><path d="M889 540L930 458.9L831 443.7Z" fill="#e9e9e9" stroke="#e9e9e9"></path><path d="M815 540L889 540L831 443.7Z" fill="#f3f3f3" stroke="#f3f3f3"></path><path d="M960 403.9L960 384.7L831 443.7Z" fill="#ececec" stroke="#ececec"></path><path d="M960 275.4L960 164.3L844 197.4Z" fill="#f3f3f3" stroke="#f3f3f3"></path><path d="M960 540L960 403.9L930 458.9Z" fill="#e6e6e6" stroke="#e6e6e6"></path><path d="M930 458.9L960 403.9L831 443.7Z" fill="#ececec" stroke="#ececec"></path><path d="M0 178.3L142 237.4L140 178.4Z" fill="#e9e9e9" stroke="#e9e9e9"></path><path d="M0 286.4L0 293.6L125 310.6Z" fill="#ececec" stroke="#ececec"></path><path d="M31 73.1L32 102.3L173 37.1Z" fill="#f0f0f0" stroke="#f0f0f0"></path><path d="M32 102.3L0 178.3L140 178.4Z" fill="#f5f5f5" stroke="#f5f5f5"></path><path d="M0 293.6L0 397.7L43 391.7Z" fill="#eeeeee" stroke="#eeeeee"></path><path d="M43 391.7L0 397.7L91 478.9Z" fill="#e6e6e6" stroke="#e6e6e6"></path><path d="M91 478.9L26 540L130 540Z" fill="#e8e8e8" stroke="#e8e8e8"></path><path d="M114 0L31 73.1L173 37.1Z" fill="#e8e8e8" stroke="#e8e8e8"></path><path d="M32 102.3L0 49.1L0 178.3Z" fill="#ebebeb" stroke="#ebebeb"></path><path d="M960 164.3L960 100.1L897 127.3Z" fill="#e9e9e9" stroke="#e9e9e9"></path><path d="M960 100.1L908 0L868 30.1Z" fill="#e8e8e8" stroke="#e8e8e8"></path><path d="M868 30.1L908 0L821 0Z" fill="#e9e9e9" stroke="#e9e9e9"></path><path d="M0 516.9L26 540L91 478.9Z" fill="#e8e8e8" stroke="#e8e8e8"></path><path d="M889 540L960 540L930 458.9Z" fill="#f2f2f2" stroke="#f2f2f2"></path><path d="M0 0L0 49.1L31 73.1Z" fill="#eeeeee" stroke="#eeeeee"></path><path d="M31 73.1L0 49.1L32 102.3Z" fill="#e9e9e9" stroke="#e9e9e9"></path><path d="M0 397.7L0 516.9L91 478.9Z" fill="#ececec" stroke="#ececec"></path><path d="M960 100.1L960 0L908 0Z" fill="#eeeeee" stroke="#eeeeee"></path><path d="M0 516.9L0 540L26 540Z" fill="#ebebeb" stroke="#ebebeb"></path><path d="M114 0L0 0L31 73.1Z" fill="#eeeeee" stroke="#eeeeee"></path></g></svg>